# xmcd
#
# Track frame offsets: 
#        150
#        13440
#        28542
#        43007
#        53837
#        66750
#        82015
#        97647
#        112677
#        127897
#        139882
#
# Disc length: 2032 seconds
#
# Revision: 0
# Processed by: cddbd v1.5.1PL0 Copyright (c) Steve Scherf et al.
# Submitted via: ExactAudioCopy v0.95b2
#
DISCID=8807ee0b
DTITLE=Scotty Campbell - Damned If I Recall
DYEAR=1999
DGENRE=Country
TTITLE0=Lonely In San Antone
TTITLE1=Rose Colored Glasses
TTITLE2=Souvenir
TTITLE3=An Ole Hillbilly Song
TTITLE4=Can I Come Too?
TTITLE5=I Still Carry You
TTITLE6=The Only Flame In Town
TTITLE7=Badly Broken Man
TTITLE8=Too Many Ways
TTITLE9=Big Fool Of The Year
TTITLE10=Heart Over Mind
EXTD=
EXTT0=
EXTT1=
EXTT2=
EXTT3=
EXTT4=
EXTT5=
EXTT6=
EXTT7=
EXTT8=
EXTT9=
EXTT10=
PLAYORDER=
